<svg width="71" height="71" viewBox="0 0 71 71" fill="none" xmlns="http://www.w3.org/2000/svg">
<path fill-rule="evenodd" clip-rule="evenodd" d="M35.3521 7.9873C20.2391 7.9873 7.98755 20.2389 7.98755 35.3519C7.98755 50.4648 20.2391 62.7165 35.3521 62.7165C50.4651 62.7165 62.7167 50.4648 62.7167 35.3519C62.7167 20.2389 50.4651 7.9873 35.3521 7.9873ZM3.55005 35.3519C3.55005 17.7881 17.7883 3.5498 35.3521 3.5498C52.916 3.5498 67.1542 17.7881 67.1542 35.3519C67.1542 52.9158 52.916 67.154 35.3521 67.154C17.7883 67.154 3.55005 52.9158 3.55005 35.3519ZM32.8716 18.3414C32.9097 18.3414 32.9476 18.3415 32.9855 18.3415H39.7896C45.0995 18.3415 49.4042 22.6461 49.4042 27.9561C49.4042 33.266 45.0995 37.5706 39.7896 37.5706H31.6542V39.0498H35.3521C36.5775 39.0498 37.5709 40.0432 37.5709 41.2686C37.5709 42.4939 36.5775 43.4873 35.3521 43.4873H31.6542V50.1436C31.6542 51.3689 30.6608 52.3623 29.4355 52.3623C28.2101 52.3623 27.2167 51.3689 27.2167 50.1436V43.4873H26.4771C25.2518 43.4873 24.2584 42.4939 24.2584 41.2686C24.2584 40.0432 25.2518 39.0498 26.4771 39.0498H27.2167V37.5706H26.4771C25.2518 37.5706 24.2584 36.5772 24.2584 35.3519C24.2584 34.1265 25.2518 33.1331 26.4771 33.1331H27.2167V24.1102C27.2167 24.0724 27.2167 24.0345 27.2166 23.9964C27.2161 23.5658 27.2156 23.1183 27.2805 22.7087C27.6313 20.4935 29.3687 18.7561 31.5838 18.4052C31.9935 18.3403 32.4411 18.3408 32.8716 18.3414ZM31.6542 33.1331H39.7896C42.6489 33.1331 44.9667 30.8153 44.9667 27.9561C44.9667 25.0968 42.6489 22.779 39.7896 22.779H32.9855C32.6985 22.779 32.5278 22.7792 32.3991 22.7827C32.3175 22.7849 32.282 22.788 32.2734 22.7889C31.9607 22.8404 31.7157 23.0855 31.664 23.3981C31.6634 23.4066 31.6601 23.4421 31.6581 23.5239C31.6545 23.6526 31.6542 23.8234 31.6542 24.1102V33.1331Z" fill="#1E552C"/>
</svg>
