<svg width="50" height="50" viewBox="0 0 50 50" fill="none" xmlns="http://www.w3.org/2000/svg">
<path fill-rule="evenodd" clip-rule="evenodd" d="M22.8617 2.5H27.2633C31.0921 2.49996 34.1246 2.49994 36.4979 2.81904C38.9404 3.14742 40.9175 3.83933 42.4767 5.39842C43.0867 6.00863 43.0867 6.99794 42.4767 7.60813C41.8665 8.21833 40.8771 8.21833 40.2669 7.60813C39.3852 6.72644 38.1775 6.19796 36.0817 5.91617C33.9406 5.62831 31.1183 5.625 27.1458 5.625H22.9792C19.0066 5.625 16.1844 5.62831 14.0434 5.91617C11.9474 6.19796 10.7398 6.72644 9.85813 7.60813C8.97644 8.48981 8.44796 9.69742 8.16617 11.7934C7.87831 13.9344 7.875 16.7566 7.875 20.7292V29.0625C7.875 33.035 7.87831 35.8573 8.16617 37.9983C8.44796 40.0942 8.97644 41.3019 9.85813 42.1835C10.7398 43.0652 11.9474 43.5938 14.0434 43.8754C16.1844 44.1633 19.0066 44.1667 22.9792 44.1667H27.1458C31.1183 44.1667 33.9406 44.1633 36.0817 43.8754C38.1775 43.5938 39.3852 43.0652 40.2669 42.1835C41.7167 40.7337 42.1558 38.4808 42.2321 33.2067C42.2446 32.3437 42.9542 31.6544 43.8171 31.6669C44.6798 31.6794 45.3692 32.389 45.3567 33.2517C45.2835 38.309 44.9562 41.9135 42.4767 44.3933C40.9175 45.9523 38.9404 46.6442 36.4979 46.9727C34.1246 47.2917 31.0921 47.2917 27.2633 47.2917H22.8617C19.033 47.2917 16.0004 47.2917 13.627 46.9727C11.1845 46.6442 9.20752 45.9523 7.64842 44.3933C6.08933 42.8342 5.39742 40.8571 5.06904 38.4146C4.74994 36.0412 4.74996 33.0087 4.75 29.18V20.6116C4.74996 16.783 4.74994 13.7504 5.06904 11.377C5.39742 8.9345 6.08933 6.95752 7.64842 5.39842C9.20752 3.83933 11.1845 3.14742 13.627 2.81904C16.0004 2.49994 19.033 2.49996 22.8617 2.5ZM37.7981 14.5741C40.0081 12.3642 43.591 12.3642 45.8008 14.5741C48.0108 16.784 48.0108 20.3669 45.8008 22.5769L35.894 32.4837C35.355 33.0229 34.9904 33.3875 34.5819 33.706C34.1015 34.0808 33.5817 34.4021 33.0317 34.6644C32.564 34.8871 32.0748 35.0502 31.3515 35.291L27.0106 36.7381C26.0523 37.0575 24.9956 36.8081 24.2812 36.0938C23.5669 35.3794 23.3175 34.3227 23.6369 33.3644L25.0548 29.1108C25.0646 29.0815 25.0742 29.0523 25.0837 29.0235C25.3248 28.3004 25.4879 27.811 25.7106 27.3433C25.9729 26.7933 26.2942 26.2735 26.669 25.7931C26.9875 25.3846 27.3521 25.02 27.8912 24.481C27.9127 24.4596 27.9344 24.4379 27.9565 24.4158L37.7981 14.5741ZM43.5912 16.7838C42.6017 15.7943 40.9975 15.7943 40.0079 16.7838L39.6292 17.1625C39.6498 17.2323 39.6733 17.3065 39.7004 17.3844C39.8962 17.9493 40.2683 18.6964 40.9733 19.4016C41.6785 20.1068 42.4256 20.4786 42.9906 20.6746C43.0685 20.7017 43.1427 20.7253 43.2125 20.7458L43.5912 20.3671C44.5806 19.3776 44.5806 17.7733 43.5912 16.7838ZM40.8258 23.1325C40.1635 22.7846 39.4485 22.296 38.7637 21.6112C38.079 20.9265 37.5904 20.2114 37.2425 19.5491L30.166 26.6256C29.539 27.2529 29.3187 27.4767 29.1329 27.715C28.8979 28.0165 28.6962 28.3427 28.5317 28.6879C28.4017 28.9606 28.2998 29.2575 28.0194 30.0992L27.1854 32.601L27.774 33.1896L30.2758 32.3556C31.1175 32.0752 31.4144 31.9733 31.6871 31.8433C32.0323 31.6787 32.3585 31.4771 32.66 31.2421C32.8983 31.0562 33.1221 30.836 33.7494 30.209L40.8258 23.1325ZM15.1667 18.6458C15.1667 17.7829 15.8662 17.0833 16.7292 17.0833H30.2708C31.1337 17.0833 31.8333 17.7829 31.8333 18.6458C31.8333 19.5088 31.1337 20.2083 30.2708 20.2083H16.7292C15.8662 20.2083 15.1667 19.5088 15.1667 18.6458ZM15.1667 26.9792C15.1667 26.1162 15.8662 25.4167 16.7292 25.4167H21.9375C22.8004 25.4167 23.5 26.1162 23.5 26.9792C23.5 27.8421 22.8004 28.5417 21.9375 28.5417H16.7292C15.8662 28.5417 15.1667 27.8421 15.1667 26.9792ZM15.1667 35.3125C15.1667 34.4496 15.8662 33.75 16.7292 33.75H19.8542C20.7171 33.75 21.4167 34.4496 21.4167 35.3125C21.4167 36.1754 20.7171 36.875 19.8542 36.875H16.7292C15.8662 36.875 15.1667 36.1754 15.1667 35.3125Z" fill="#1E552C"/>
</svg>
