<svg width="100" height="100" viewBox="0 0 100 100" fill="none" xmlns="http://www.w3.org/2000/svg">
<path d="M12.5124 51.4861C13.732 52.7073 13.7308 54.6861 12.5097 55.9056L11.8689 56.5456C11.3215 57.0923 11.3215 57.9769 11.8689 58.5236C12.4184 59.0727 13.3108 59.0727 13.8603 58.5236L20.9092 51.4836C22.1303 50.2636 24.1089 50.2648 25.3286 51.4861C26.5482 52.7073 26.547 54.6861 25.3259 55.9056L18.277 62.9461C15.2874 65.9319 10.4418 65.9319 7.45216 62.9461C4.46045 59.9577 4.46045 55.1115 7.45216 52.1236L8.09299 51.4836C9.31411 50.2636 11.2927 50.2648 12.5124 51.4861Z" fill="#1E552C"/>
<path d="M32.7378 55.6375C33.9582 56.8579 33.9582 58.8362 32.7378 60.0566L23.9173 68.8771C22.697 70.0975 20.7183 70.0975 19.4979 68.8771C18.2775 67.6566 18.2775 65.6783 19.4979 64.4579L28.3184 55.6375C29.5388 54.4171 31.5174 54.4171 32.7378 55.6375Z" fill="#1E552C"/>
<path d="M44.3034 67.1887C45.5238 68.4092 45.5238 70.3879 44.3034 71.6083L35.5431 80.3683C34.3227 81.5887 32.344 81.5887 31.1237 80.3683C29.9033 79.1479 29.9033 77.1692 31.1237 75.9487L39.8838 67.1887C41.1042 65.9683 43.0829 65.9683 44.3034 67.1887Z" fill="#1E552C"/>
<path d="M31.1344 68.8382C32.3411 70.0719 32.3191 72.0503 31.0852 73.2569L23.962 80.2236C22.7281 81.4303 20.7495 81.4082 19.5428 80.1744C18.3361 78.9407 18.3581 76.9619 19.592 75.7553L26.7152 68.789C27.9491 67.5819 29.9276 67.604 31.1344 68.8382Z" fill="#1E552C"/>
<path d="M48.3597 74.6924C49.5797 75.9137 49.5784 77.8924 48.3572 79.112L41.3082 86.1524C40.7609 86.6991 40.7609 87.5837 41.3082 88.1304C41.8576 88.6791 42.7501 88.6791 43.2997 88.1304L43.9405 87.4904C45.1617 86.2708 47.1401 86.272 48.3597 87.4933C49.5797 88.7141 49.5784 90.6929 48.3572 91.9124L47.7163 92.5524C44.7267 95.5387 39.8811 95.5387 36.8915 92.5524C33.8998 89.5645 33.8998 84.7183 36.8915 81.7299L43.9405 74.6899C45.1617 73.4704 47.1401 73.4712 48.3597 74.6924Z" fill="#1E552C"/>
<path fill-rule="evenodd" clip-rule="evenodd" d="M74.9667 5.20872L75.5238 5.20897H77.7954C80.9354 5.20884 83.6 5.20872 85.7259 5.4933C87.9871 5.79605 90.1009 6.47126 91.8096 8.17301C93.5204 9.87659 94.2009 11.9866 94.5059 14.2447C94.7921 16.364 94.7917 19.0199 94.7917 22.1446V24.409L94.7921 24.967C94.7942 28.7211 94.7963 31.4701 93.7479 33.9895C92.7009 36.5077 90.7492 38.4484 88.0817 41.1013L87.6854 41.4956L78.2438 50.8973L78.4075 51.1498C79.8279 53.3406 80.9913 55.1352 81.8334 56.6868C82.71 58.3023 83.3475 59.8435 83.6034 61.5623C84.0105 64.2956 83.6421 67.1027 82.5654 69.6789C82.1546 70.6614 81.4542 71.6714 80.7592 72.5664C80.0267 73.5102 79.1342 74.5339 78.1813 75.5714C76.2854 77.6339 74.0121 79.8981 72.0013 81.9006L71.9721 81.9298L71.6671 82.2331C68.8575 85.031 63.9834 84.1306 62.4796 80.3635C61.6509 78.2873 61.3271 77.4902 60.9242 76.7564C60.5471 76.0702 60.115 75.4156 59.6313 74.7993C59.1213 74.1493 58.5246 73.5456 56.9909 72.0181L55.2284 70.4748C54.9325 70.5064 54.6329 70.5223 54.3288 70.5223C51.9167 70.5223 49.9434 69.5131 48.1267 68.1331C46.4204 66.8368 44.5354 64.9598 42.3163 62.7493L37.0395 57.4948C34.8202 55.2852 32.9349 53.4077 31.6329 51.7089C30.2472 49.9002 29.2284 47.9285 29.2284 45.5143C29.2284 45.1502 29.2518 44.7927 29.2973 44.4414L26.4328 41.5888C26.2566 41.4134 26.1885 41.3457 26.1216 41.2808C24.8042 40.0042 23.254 38.9886 21.5536 38.2888C21.4672 38.2532 21.3778 38.2178 21.1462 38.1261L19.7736 37.5829C15.8291 36.0218 14.7619 30.9308 17.7784 27.9271L17.8075 27.8981C19.8185 25.8956 22.092 23.6317 24.1637 21.7441C25.2053 20.7951 26.2332 19.9067 27.1807 19.1773C28.0798 18.4851 29.0924 17.7888 30.0762 17.3812C32.6582 16.3111 35.4702 15.9456 38.2075 16.3496C39.9275 16.6035 41.4719 17.2365 43.0929 18.109C44.6509 18.9473 46.4525 20.1056 48.6534 21.5203L48.9271 21.6963L58.3834 12.2798L58.7775 11.8874C61.4438 9.22876 63.3913 7.28709 65.9163 6.24555C68.44 5.20459 71.1934 5.20634 74.9667 5.20872ZM73.7171 55.4052C74.8892 57.2181 75.7309 58.5452 76.3404 59.6685C77.0313 60.9414 77.3142 61.7598 77.4217 62.4827C77.6559 64.0548 77.4492 65.7123 76.7988 67.2689C76.72 67.4577 76.4438 67.9331 75.8225 68.7339C75.2388 69.4856 74.4746 70.3677 73.5788 71.3423C71.8913 73.1789 69.8592 75.2127 67.9229 77.1414C67.3479 75.7073 66.9279 74.7048 66.4025 73.7477C65.8617 72.7635 65.2417 71.8248 64.5484 70.941C63.7663 69.9443 62.8717 69.0539 61.4688 67.6573L61.3179 67.5068C61.4584 67.3898 61.5984 67.271 61.7379 67.151C63.1117 65.966 64.65 64.4339 66.4188 62.6727L73.7171 55.4052ZM75.5238 11.459C70.9529 11.459 69.5346 11.5139 68.2996 12.0234C67.0659 12.5323 66.0259 13.4899 62.7938 16.7086L41.5989 37.814C39.7886 39.6167 38.4301 40.9717 37.4093 42.1352C36.3829 43.3052 35.8896 44.0727 35.6582 44.6477C35.5264 44.9748 35.4784 45.2443 35.4784 45.5143C35.4784 46.0043 35.6331 46.6531 36.5941 47.9077C37.6099 49.2331 39.1894 50.8156 41.5989 53.2148L41.8829 53.4977L47.1454 48.2573C48.3684 47.0398 50.3471 47.0439 51.565 48.2668C52.7829 49.4898 52.7788 51.4685 51.5554 52.686L46.3117 57.9081L46.5771 58.1723C48.9867 60.5714 50.5759 62.1443 51.9075 63.1564C53.1667 64.1131 53.8246 64.2723 54.3288 64.2723C54.5867 64.2723 54.8384 64.2302 55.1313 64.1223C55.6988 63.9135 56.4659 63.4448 57.6554 62.4185C58.8404 61.3964 60.2234 60.0218 62.0809 58.1723L83.2754 37.0668C86.5092 33.8466 87.4684 32.813 87.9775 31.5892C88.4859 30.3667 88.5417 28.9633 88.5417 24.409V22.3556C88.5417 18.962 88.535 16.7324 88.3121 15.081C88.1013 13.5208 87.7509 12.9516 87.3996 12.6018C87.0463 12.2501 86.4696 11.8986 84.8963 11.688C83.2346 11.4656 80.9925 11.459 77.5859 11.459H75.5238ZM76.4475 23.4705C72.4788 19.5184 66.0496 19.5184 62.0809 23.4705C58.1046 27.4298 58.1046 33.8547 62.0809 37.814C66.0496 41.766 72.4788 41.766 76.4475 37.814C80.4234 33.8547 80.4234 27.4298 76.4475 23.4705ZM66.4909 27.8992C68.0209 26.3755 70.5071 26.3755 72.0375 27.8992C73.5604 29.4157 73.5604 31.8688 72.0375 33.3853C70.5071 34.909 68.0209 34.909 66.4909 33.3853C64.9679 31.8688 64.9679 29.4157 66.4909 27.8992ZM44.3925 26.2119C42.5829 25.0517 41.2554 24.2176 40.1312 23.6126C38.8517 22.9239 38.0264 22.6406 37.2949 22.5326C35.7083 22.2985 34.037 22.5052 32.4689 23.155C32.2761 23.2349 31.7969 23.5111 30.9932 24.1298C30.2379 24.7113 29.3519 25.4721 28.3731 26.3641C26.537 28.037 24.505 30.0499 22.5757 31.9702L23.4461 32.3147L23.467 32.323C23.6715 32.4039 23.8019 32.4555 23.932 32.509C26.3644 33.51 28.5837 34.9635 30.4711 36.7926C30.5724 36.8908 30.6719 36.9899 30.8286 37.1459L32.2453 38.5566C32.3976 38.3745 32.5531 38.1936 32.7112 38.0134C33.8867 36.6734 35.3936 35.1729 37.1219 33.452L44.3925 26.2119Z" fill="#1E552C"/>
</svg>
