<svg width="100" height="100" viewBox="0 0 100 100" fill="none" xmlns="http://www.w3.org/2000/svg">
<path fill-rule="evenodd" clip-rule="evenodd" d="M45.7233 5H54.5267C62.1842 4.99992 68.2492 4.99988 72.9958 5.63808C77.8808 6.29483 81.835 7.67867 84.9533 10.7968C86.1733 12.0173 86.1733 13.9959 84.9533 15.2163C83.7329 16.4367 81.7542 16.4367 80.5337 15.2163C78.7704 13.4529 76.355 12.3959 72.1633 11.8323C67.8812 11.2566 62.2367 11.25 54.2917 11.25H45.9583C38.0132 11.25 32.3688 11.2566 28.0869 11.8323C23.8948 12.3959 21.4796 13.4529 19.7163 15.2163C17.9529 16.9796 16.8959 19.3948 16.3323 23.5869C15.7566 27.8688 15.75 33.5132 15.75 41.4583V58.125C15.75 66.07 15.7566 71.7146 16.3323 75.9967C16.8959 80.1883 17.9529 82.6037 19.7163 84.3671C21.4796 86.1304 23.8948 87.1875 28.0869 87.7508C32.3688 88.3267 38.0132 88.3333 45.9583 88.3333H54.2917C62.2367 88.3333 67.8812 88.3267 72.1633 87.7508C76.355 87.1875 78.7704 86.1304 80.5337 84.3671C83.4333 81.4675 84.3117 76.9617 84.4642 66.4133C84.4892 64.6875 85.9083 63.3088 87.6342 63.3337C89.3596 63.3587 90.7383 64.7779 90.7133 66.5033C90.5671 76.6179 89.9125 83.8271 84.9533 88.7867C81.835 91.9046 77.8808 93.2883 72.9958 93.9454C68.2492 94.5833 62.1842 94.5833 54.5267 94.5833H45.7233C38.066 94.5833 32.0008 94.5833 27.2541 93.9454C22.369 93.2883 18.415 91.9046 15.2968 88.7867C12.1787 85.6683 10.7948 81.7142 10.1381 76.8292C9.49988 72.0825 9.49992 66.0175 9.5 58.36V41.2232C9.49992 33.5659 9.49988 27.5008 10.1381 22.7541C10.7948 17.869 12.1787 13.915 15.2968 10.7968C18.415 7.67867 22.369 6.29483 27.2541 5.63808C32.0008 4.99988 38.0659 4.99992 45.7233 5ZM75.5962 29.1482C80.0163 24.7284 87.1821 24.7284 91.6017 29.1482C96.0217 33.5679 96.0217 40.7338 91.6017 45.1537L71.7879 64.9675C70.71 66.0458 69.9808 66.775 69.1637 67.4121C68.2029 68.1617 67.1633 68.8042 66.0633 69.3288C65.1279 69.7742 64.1496 70.1004 62.7029 70.5821L54.0212 73.4762C52.1046 74.115 49.9912 73.6162 48.5625 72.1875C47.1337 70.7588 46.635 68.6454 47.2737 66.7287L50.1096 58.2217C50.1292 58.1629 50.1483 58.1046 50.1675 58.0471C50.6496 56.6008 50.9758 55.6221 51.4212 54.6867C51.9458 53.5867 52.5883 52.5471 53.3379 51.5863C53.975 50.7692 54.7042 50.04 55.7825 48.9621C55.8254 48.9192 55.8687 48.8758 55.9129 48.8317L75.5962 29.1482ZM87.1825 33.5676C85.2033 31.5886 81.995 31.5886 80.0158 33.5676L79.2583 34.325C79.2996 34.4645 79.3467 34.6129 79.4008 34.7688C79.7925 35.8985 80.5367 37.3928 81.9467 38.8032C83.3571 40.2135 84.8512 40.9573 85.9812 41.3492C86.1371 41.4033 86.2854 41.4505 86.425 41.4917L87.1825 40.7342C89.1612 38.7552 89.1612 35.5466 87.1825 33.5676ZM81.6517 46.265C80.3271 45.5692 78.8971 44.5921 77.5275 43.2225C76.1579 41.8529 75.1808 40.4227 74.485 39.0982L60.3321 53.2513C59.0779 54.5058 58.6375 54.9533 58.2658 55.43C57.7958 56.0329 57.3925 56.6854 57.0633 57.3758C56.8033 57.9212 56.5996 58.515 56.0387 60.1983L54.3708 65.2021L55.5479 66.3792L60.5517 64.7112C62.235 64.1504 62.8287 63.9467 63.3742 63.6867C64.0646 63.3575 64.7171 62.9542 65.32 62.4842C65.7967 62.1125 66.2442 61.6721 67.4987 60.4179L81.6517 46.265ZM30.3333 37.2917C30.3333 35.5658 31.7325 34.1667 33.4583 34.1667H60.5417C62.2675 34.1667 63.6667 35.5658 63.6667 37.2917C63.6667 39.0175 62.2675 40.4167 60.5417 40.4167H33.4583C31.7325 40.4167 30.3333 39.0175 30.3333 37.2917ZM30.3333 53.9583C30.3333 52.2325 31.7325 50.8333 33.4583 50.8333H43.875C45.6008 50.8333 47 52.2325 47 53.9583C47 55.6842 45.6008 57.0833 43.875 57.0833H33.4583C31.7325 57.0833 30.3333 55.6842 30.3333 53.9583ZM30.3333 70.625C30.3333 68.8992 31.7325 67.5 33.4583 67.5H39.7083C41.4342 67.5 42.8333 68.8992 42.8333 70.625C42.8333 72.3508 41.4342 73.75 39.7083 73.75H33.4583C31.7325 73.75 30.3333 72.3508 30.3333 70.625Z" fill="#1E552C"/>
</svg>
