<svg width="50" height="50" viewBox="0 0 50 50" fill="none" xmlns="http://www.w3.org/2000/svg">
<path fill-rule="evenodd" clip-rule="evenodd" d="M24.8958 5.625C14.2529 5.625 5.625 14.2529 5.625 24.8958C5.625 35.5387 14.2529 44.1667 24.8958 44.1667C35.5387 44.1667 44.1667 35.5387 44.1667 24.8958C44.1667 14.2529 35.5387 5.625 24.8958 5.625ZM2.5 24.8958C2.5 12.527 12.527 2.5 24.8958 2.5C37.2648 2.5 47.2917 12.527 47.2917 24.8958C47.2917 37.2648 37.2648 47.2917 24.8958 47.2917C12.527 47.2917 2.5 37.2648 2.5 24.8958ZM23.149 12.9166C23.1758 12.9166 23.2025 12.9167 23.2292 12.9167H28.0208C31.7602 12.9167 34.7917 15.9481 34.7917 19.6875C34.7917 23.4269 31.7602 26.4583 28.0208 26.4583H22.2917V27.5H24.8958C25.7587 27.5 26.4583 28.1996 26.4583 29.0625C26.4583 29.9254 25.7587 30.625 24.8958 30.625H22.2917V35.3125C22.2917 36.1754 21.5921 36.875 20.7292 36.875C19.8662 36.875 19.1667 36.1754 19.1667 35.3125V30.625H18.6458C17.7829 30.625 17.0833 29.9254 17.0833 29.0625C17.0833 28.1996 17.7829 27.5 18.6458 27.5H19.1667V26.4583H18.6458C17.7829 26.4583 17.0833 25.7587 17.0833 24.8958C17.0833 24.0329 17.7829 23.3333 18.6458 23.3333H19.1667V16.9792C19.1667 16.9525 19.1666 16.9258 19.1666 16.899C19.1662 16.5958 19.1659 16.2806 19.2116 15.9922C19.4586 14.4321 20.6821 13.2086 22.2421 12.9616C22.5306 12.9159 22.8458 12.9162 23.149 12.9166ZM22.2917 23.3333H28.0208C30.0344 23.3333 31.6667 21.701 31.6667 19.6875C31.6667 17.674 30.0344 16.0417 28.0208 16.0417H23.2292C23.0271 16.0417 22.9069 16.0418 22.8162 16.0443C22.7587 16.0459 22.7337 16.048 22.7277 16.0486C22.5075 16.0849 22.335 16.2575 22.2985 16.4777C22.2981 16.4837 22.2958 16.5087 22.2944 16.5662C22.2919 16.6569 22.2917 16.7771 22.2917 16.9792V23.3333Z" fill="#1E552C"/>
</svg>
