<svg width="71" height="71" viewBox="0 0 71 71" fill="none" xmlns="http://www.w3.org/2000/svg">
<path fill-rule="evenodd" clip-rule="evenodd" d="M32.4636 3.54981H38.7139C44.1507 3.54975 48.4569 3.54972 51.827 4.00285C55.2954 4.46914 58.1028 5.45166 60.3169 7.66556C61.1831 8.53205 61.1831 9.93688 60.3169 10.8033C59.4504 11.6698 58.0454 11.6698 57.179 10.8033C55.927 9.55135 54.212 8.80091 51.236 8.40076C48.1957 7.99201 44.188 7.98731 38.5471 7.98731H32.6304C26.9894 7.98731 22.9818 7.99201 19.9417 8.40076C16.9653 8.80091 15.2505 9.55135 13.9985 10.8033C12.7465 12.0553 11.9961 13.7701 11.596 16.7465C11.1872 19.7866 11.1825 23.7942 11.1825 29.4352V41.2686C11.1825 46.9095 11.1872 50.9172 11.596 53.9574C11.9961 56.9335 12.7465 58.6485 13.9985 59.9004C15.2505 61.1524 16.9653 61.9029 19.9417 62.3029C22.9818 62.7117 26.9894 62.7165 32.6304 62.7165H38.5471C44.188 62.7165 48.1957 62.7117 51.236 62.3029C54.212 61.9029 55.927 61.1524 57.179 59.9004C59.2377 57.8417 59.8613 54.6426 59.9695 47.1533C59.9873 45.9279 60.9949 44.949 62.2202 44.9668C63.4453 44.9845 64.4242 45.9921 64.4065 47.2172C64.3026 54.3985 63.8379 59.517 60.3169 63.0383C58.1028 65.2521 55.2954 66.2345 51.827 66.701C48.4569 67.154 44.1507 67.154 38.7139 67.154H32.4636C27.0268 67.154 22.7206 67.154 19.3504 66.701C15.882 66.2345 13.0747 65.2521 10.8607 63.0383C8.64685 60.8243 7.66433 58.0169 7.19804 54.5485C6.74491 51.1784 6.74494 46.8722 6.745 41.4354V29.2683C6.74494 23.8316 6.74491 19.5254 7.19804 16.1552C7.66433 12.6868 8.64685 9.87949 10.8607 7.66556C13.0747 5.45166 15.882 4.46914 19.3504 4.00285C22.7206 3.54972 27.0268 3.54975 32.4636 3.54981ZM53.6733 20.695C56.8115 17.557 61.8993 17.557 65.0372 20.695C68.1754 23.833 68.1754 28.9208 65.0372 32.059L50.9694 46.1267C50.2041 46.8923 49.6864 47.4101 49.1063 47.8624C48.4241 48.3946 47.686 48.8508 46.905 49.2232C46.2408 49.5395 45.5462 49.7711 44.5191 50.1131L38.3551 52.1679C36.9942 52.6215 35.4938 52.2673 34.4794 51.2529C33.465 50.2385 33.1108 48.738 33.5644 47.3772L35.5778 41.3372C35.5917 41.2955 35.6053 41.2541 35.6189 41.2132C35.9612 40.1864 36.1928 39.4915 36.5091 38.8273C36.8815 38.0463 37.3377 37.3082 37.8699 36.626C38.3222 36.0459 38.8399 35.5282 39.6056 34.7629C39.636 34.7324 39.6668 34.7016 39.6982 34.6703L53.6733 20.695ZM61.8996 23.8328C60.4944 22.4277 58.2164 22.4277 56.8112 23.8328L56.2734 24.3706C56.3027 24.4696 56.3361 24.575 56.3746 24.6857C56.6527 25.4878 57.181 26.5487 58.1821 27.5501C59.1835 28.5514 60.2444 29.0795 61.0467 29.3578C61.1573 29.3962 61.2626 29.4297 61.3617 29.4589L61.8996 28.9211C63.3045 27.516 63.3045 25.2379 61.8996 23.8328ZM57.9727 32.848C57.0322 32.3539 56.0169 31.6602 55.0445 30.6878C54.0721 29.7154 53.3784 28.7 52.8843 27.7595L42.8358 37.8082C41.9453 38.6989 41.6326 39.0167 41.3687 39.3551C41.035 39.7832 40.7487 40.2464 40.515 40.7366C40.3304 41.1239 40.1857 41.5455 39.7875 42.7406L38.6033 46.2933L39.439 47.129L42.9917 45.9448C44.1868 45.5466 44.6084 45.4019 44.9957 45.2173C45.4858 44.9836 45.9491 44.6973 46.3772 44.3636C46.7156 44.0997 47.0334 43.787 47.9241 42.8965L57.9727 32.848ZM21.5367 26.4769C21.5367 25.2515 22.53 24.2581 23.7554 24.2581H42.9846C44.2099 24.2581 45.2033 25.2515 45.2033 26.4769C45.2033 27.7023 44.2099 28.6956 42.9846 28.6956H23.7554C22.53 28.6956 21.5367 27.7023 21.5367 26.4769ZM21.5367 38.3102C21.5367 37.0849 22.53 36.0915 23.7554 36.0915H31.1512C32.3766 36.0915 33.37 37.0849 33.37 38.3102C33.37 39.5356 32.3766 40.529 31.1512 40.529H23.7554C22.53 40.529 21.5367 39.5356 21.5367 38.3102ZM21.5367 50.1436C21.5367 48.9182 22.53 47.9248 23.7554 47.9248H28.1929C29.4183 47.9248 30.4117 48.9182 30.4117 50.1436C30.4117 51.3689 29.4183 52.3623 28.1929 52.3623H23.7554C22.53 52.3623 21.5367 51.3689 21.5367 50.1436Z" fill="#1E552C"/>
</svg>
