<svg width="100" height="100" viewBox="0 0 100 100" fill="none" xmlns="http://www.w3.org/2000/svg">
<path fill-rule="evenodd" clip-rule="evenodd" d="M49.7608 5.2085H50.2392C59.8575 5.20846 67.395 5.20841 73.2763 5.99912C79.2958 6.80845 84.0463 8.49737 87.7746 12.2257C91.5029 15.9541 93.1917 20.7042 94.0013 26.724C94.7917 32.6051 94.7917 40.1428 94.7917 49.761V50.2393C94.7917 59.8577 94.7917 67.3952 94.0013 73.2764C93.1917 79.296 91.5029 84.0464 87.7746 87.7747C84.0463 91.5031 79.2958 93.1918 73.2763 94.0014C67.395 94.7918 59.8575 94.7918 50.2392 94.7918H49.7608C40.1426 94.7918 32.605 94.7918 26.7238 94.0014C20.7041 93.1918 15.954 91.5031 12.2256 87.7747C8.49722 84.0464 6.8083 79.296 5.99897 73.2764C5.20826 67.3952 5.2083 59.8577 5.20834 50.2393V49.761C5.2083 40.1428 5.20826 32.6051 5.99897 26.724C6.8083 20.7042 8.49722 15.9541 12.2256 12.2257C15.954 8.49737 20.7041 6.80845 26.7238 5.99912C32.605 5.20841 40.1426 5.20846 49.7608 5.2085ZM27.5566 12.1934C22.2299 12.9095 19.0186 14.2716 16.645 16.6452C14.2714 19.0187 12.9094 22.23 12.1932 27.5567C11.465 32.9733 11.4583 40.0909 11.4583 50.0002C11.4583 59.9093 11.465 67.0268 12.1932 72.4435C12.9094 77.7702 14.2714 80.9814 16.645 83.3552C19.0186 85.7289 22.2299 87.091 27.5566 87.8068C32.9732 88.5352 40.0907 88.5418 50 88.5418C59.9092 88.5418 67.0267 88.5352 72.4433 87.8068C77.77 87.091 80.9813 85.7289 83.355 83.3552C85.7288 80.9814 87.0908 77.7702 87.8067 72.4435C88.535 67.0268 88.5417 59.9093 88.5417 50.0002C88.5417 40.0909 88.535 32.9733 87.8067 27.5567C87.0908 22.23 85.7288 19.0187 83.355 16.6452C80.9813 14.2716 77.77 12.9095 72.4433 12.1934C67.0267 11.4651 59.9092 11.4585 50 11.4585C40.0907 11.4585 32.9732 11.4651 27.5566 12.1934ZM43.8217 26.9039C45.0717 28.0942 45.12 30.0722 43.9296 31.322L32.0248 43.8218C31.435 44.4414 30.6172 44.7918 29.7619 44.7918C28.9067 44.7918 28.0888 44.4414 27.499 43.8218L22.7371 38.822C21.5468 37.5722 21.5951 35.5942 22.8448 34.4039C24.0946 33.2136 26.0727 33.2619 27.2629 34.5117L29.7619 37.1356L39.4038 27.0117C40.594 25.7619 42.5721 25.7136 43.8217 26.9039ZM51.0417 37.5002C51.0417 35.7743 52.4408 34.3752 54.1667 34.3752H75C76.7258 34.3752 78.125 35.7743 78.125 37.5002C78.125 39.226 76.7258 40.6252 75 40.6252H54.1667C52.4408 40.6252 51.0417 39.226 51.0417 37.5002ZM43.8217 56.0706C45.0717 57.261 45.12 59.2389 43.9296 60.4885L32.0248 72.9885C31.435 73.6081 30.6172 73.9585 29.7619 73.9585C28.9067 73.9585 28.0888 73.6081 27.499 72.9885L22.7371 67.9885C21.5468 66.7389 21.5951 64.761 22.8448 63.5706C24.0946 62.3802 26.0727 62.4285 27.2629 63.6785L29.7619 66.3022L39.4038 56.1785C40.594 54.9285 42.5721 54.8802 43.8217 56.0706ZM51.0417 66.6668C51.0417 64.941 52.4408 63.5418 54.1667 63.5418H75C76.7258 63.5418 78.125 64.941 78.125 66.6668C78.125 68.3927 76.7258 69.7918 75 69.7918H54.1667C52.4408 69.7918 51.0417 68.3927 51.0417 66.6668Z" fill="#1E552C"/>
</svg>
