<svg width="71" height="71" viewBox="0 0 71 71" fill="none" xmlns="http://www.w3.org/2000/svg">
<path d="M8.88386 36.5547C9.74979 37.4218 9.74894 38.8267 8.88194 39.6926L8.42698 40.147C8.03834 40.5351 8.03834 41.1632 8.42698 41.5513C8.81709 41.9412 9.45071 41.9412 9.84085 41.5513L14.8456 36.5529C15.7126 35.6867 17.1174 35.6876 17.9834 36.5547C18.8493 37.4218 18.8484 38.8267 17.9814 39.6926L12.9767 44.6913C10.8541 46.8112 7.41372 46.8112 5.29108 44.6913C3.16697 42.5696 3.16697 39.1287 5.29108 37.0073L5.74607 36.5529C6.61307 35.6867 8.0179 35.6876 8.88386 36.5547Z" fill="#1E552C"/>
<path d="M23.2438 39.5024C24.1102 40.3689 24.1102 41.7735 23.2438 42.64L16.9812 48.9025C16.1148 49.769 14.7099 49.769 13.8435 48.9025C12.977 48.036 12.977 46.6314 13.8435 45.7649L20.106 39.5024C20.9724 38.6359 22.3773 38.6359 23.2438 39.5024Z" fill="#1E552C"/>
<path d="M31.4554 47.7036C32.3219 48.5701 32.3219 49.975 31.4554 50.8415L25.2356 57.0611C24.3692 57.9276 22.9643 57.9276 22.0978 57.0611C21.2314 56.1946 21.2314 54.7897 22.0978 53.9232L28.3175 47.7036C29.184 46.8371 30.5889 46.8371 31.4554 47.7036Z" fill="#1E552C"/>
<path d="M22.1054 48.8746C22.9622 49.7506 22.9466 51.1552 22.0705 52.0119L17.013 56.9583C16.137 57.815 14.7322 57.7993 13.8754 56.9233C13.0186 56.0474 13.0343 54.6425 13.9103 53.7857L18.9678 48.8397C19.8439 47.9827 21.2486 47.9983 22.1054 48.8746Z" fill="#1E552C"/>
<path d="M34.3353 53.0316C35.2015 53.8987 35.2006 55.3036 34.3336 56.1695L29.3288 61.1682C28.9402 61.5563 28.9402 62.1844 29.3288 62.5725C29.7189 62.9622 30.3525 62.9622 30.7427 62.5725L31.1977 62.1181C32.0648 61.2522 33.4694 61.2531 34.3353 62.1202C35.2015 62.987 35.2006 64.3919 34.3336 65.2578L33.8786 65.7122C31.756 67.8325 28.3156 67.8325 26.1929 65.7122C24.0688 63.5908 24.0688 60.15 26.1929 58.0282L31.1977 53.0298C32.0648 52.1639 33.4694 52.1645 34.3353 53.0316Z" fill="#1E552C"/>
<path fill-rule="evenodd" clip-rule="evenodd" d="M53.2265 3.69791L53.622 3.69809H55.2349C57.4643 3.698 59.3561 3.69791 60.8655 3.89997C62.471 4.11492 63.9717 4.59432 65.185 5.80256C66.3996 7.0121 66.8827 8.51023 67.0993 10.1135C67.3025 11.6181 67.3022 13.5039 67.3022 15.7224V17.3301L67.3025 17.7263C67.304 20.3917 67.3055 22.3435 66.5612 24.1323C65.8177 25.9202 64.4321 27.2981 62.5381 29.1816L62.2568 29.4616L55.5532 36.1368L55.6695 36.3161C56.678 37.8715 57.5039 39.1457 58.1018 40.2474C58.7242 41.3943 59.1769 42.4886 59.3585 43.7089C59.6475 45.6496 59.386 47.6426 58.6216 49.4718C58.3299 50.1693 57.8326 50.8864 57.3392 51.5219C56.8191 52.1919 56.1854 52.9188 55.5088 53.6554C54.1628 55.1198 52.5487 56.7274 51.121 58.1491L51.1003 58.1698L50.8838 58.3852C48.889 60.3717 45.4283 59.7324 44.3607 57.0578C43.7722 55.5837 43.5424 55.0177 43.2563 54.4968C42.9886 54.0095 42.6818 53.5448 42.3383 53.1073C41.9762 52.6458 41.5526 52.2171 40.4636 51.1326L39.2123 50.0368C39.0022 50.0593 38.7895 50.0705 38.5736 50.0705C36.861 50.0705 35.4599 49.354 34.1701 48.3742C32.9586 47.4539 31.6203 46.1212 30.0447 44.5518L26.2982 40.821C24.7224 39.2522 23.3839 37.9192 22.4595 36.7131C21.4756 35.4288 20.7523 34.029 20.7523 32.3149C20.7523 32.0563 20.7689 31.8025 20.8012 31.5531L18.7674 29.5278C18.6423 29.4032 18.594 29.3552 18.5464 29.3091C17.6111 28.4027 16.5105 27.6816 15.3032 27.1848C15.2418 27.1595 15.1784 27.1344 15.0139 27.0693L14.0394 26.6836C11.2388 25.5752 10.4811 21.9606 12.6228 19.828L12.6434 19.8074C14.0713 18.3856 15.6855 16.7782 17.1564 15.4381C17.8959 14.7642 18.6257 14.1335 19.2984 13.6156C19.9368 13.1242 20.6557 12.6298 21.3542 12.3404C23.1875 11.5806 25.1839 11.3211 27.1275 11.608C28.3487 11.7882 29.4452 12.2376 30.5961 12.8571C31.7022 13.4523 32.9814 14.2747 34.544 15.2792L34.7384 15.4041L41.4523 8.71841L41.7322 8.43977C43.6252 6.55214 45.0079 5.17356 46.8007 4.43406C48.5925 3.69498 50.5474 3.69623 53.2265 3.69791ZM52.3393 39.3374C53.1715 40.6246 53.769 41.5668 54.2018 42.3644C54.6923 43.2681 54.8932 43.8492 54.9695 44.3624C55.1358 45.4786 54.9891 46.6554 54.5273 47.7607C54.4713 47.8947 54.2752 48.2322 53.8341 48.8008C53.4197 49.3345 52.8771 49.9608 52.2411 50.6527C51.0429 51.9568 49.6002 53.4007 48.2254 54.7701C47.8172 53.7519 47.519 53.0401 47.1459 52.3606C46.7619 51.6618 46.3217 50.9953 45.8295 50.3678C45.2742 49.6602 44.639 49.028 43.643 48.0364L43.5359 47.9296C43.6356 47.8465 43.735 47.7621 43.8341 47.6769C44.8094 46.8356 45.9016 45.7478 47.1575 44.4973L52.3393 39.3374ZM53.622 8.13559C50.3767 8.13559 49.3697 8.17458 48.4928 8.53633C47.6169 8.89763 46.8785 9.57757 44.5837 11.8628L29.5354 26.8477C28.25 28.1276 27.2855 29.0896 26.5607 29.9157C25.832 30.7464 25.4818 31.2913 25.3174 31.6996C25.2239 31.9318 25.1898 32.1232 25.1898 32.3149C25.1898 32.6628 25.2996 33.1234 25.9819 34.0142C26.7032 34.9552 27.8246 36.0788 29.5354 37.7822L29.737 37.9831L33.4734 34.2624C34.3417 33.398 35.7466 33.4009 36.6113 34.2692C37.476 35.1375 37.4731 36.5424 36.6045 37.4068L32.8814 41.1145L33.0699 41.302C34.7807 43.0054 35.909 44.1222 36.8545 44.8408C37.7485 45.52 38.2156 45.633 38.5736 45.633C38.7567 45.633 38.9354 45.6031 39.1433 45.5265C39.5463 45.3783 40.0909 45.0455 40.9355 44.3169C41.7768 43.5912 42.7587 42.6152 44.0775 41.302L59.1257 26.3172C61.4217 24.0308 62.1027 23.297 62.4642 22.428C62.8251 21.5601 62.8647 20.5637 62.8647 17.3301V15.8722C62.8647 13.4627 62.86 11.8797 62.7017 10.7072C62.552 9.59946 62.3032 9.19535 62.0539 8.94697C61.803 8.69729 61.3936 8.44775 60.2765 8.29821C59.0967 8.14026 57.5048 8.13559 55.0861 8.13559H53.622ZM54.2779 16.6638C51.4601 13.8578 46.8954 13.8578 44.0775 16.6638C41.2544 19.4749 41.2544 24.0365 44.0775 26.8477C46.8954 29.6536 51.4601 29.6536 54.2779 26.8477C57.1007 24.0365 57.1007 19.4749 54.2779 16.6638ZM47.2086 19.8082C48.2949 18.7263 50.0602 18.7263 51.1468 19.8082C52.228 20.8849 52.228 22.6266 51.1468 23.7033C50.0602 24.7851 48.2949 24.7851 47.2086 23.7033C46.1274 22.6266 46.1274 20.8849 47.2086 19.8082ZM31.5188 18.6102C30.234 17.7864 29.2915 17.1942 28.4932 16.7646C27.5848 16.2757 26.9989 16.0746 26.4795 15.9979C25.353 15.8316 24.1664 15.9784 23.053 16.4398C22.9161 16.4965 22.5759 16.6926 22.0053 17.1319C21.469 17.5447 20.84 18.0849 20.145 18.7182C18.8414 19.906 17.3987 21.3351 16.0289 22.6986L16.6468 22.9431L16.6617 22.949C16.8069 23.0065 16.8995 23.0431 16.9918 23.0811C18.7188 23.7918 20.2946 24.8238 21.6346 26.1225C21.7065 26.1922 21.7772 26.2626 21.8884 26.3733L22.8943 27.3749C23.0024 27.2457 23.1128 27.1171 23.225 26.9892C24.0597 26.0379 25.1296 24.9725 26.3566 23.7506L31.5188 18.6102Z" fill="#1E552C"/>
</svg>
