<svg width="50" height="50" viewBox="0 0 50 50" fill="none" xmlns="http://www.w3.org/2000/svg">
<path d="M6.25626 25.743C6.86608 26.3537 6.86547 27.343 6.25491 27.9528L5.93451 28.2728C5.66083 28.5462 5.66083 28.9884 5.93451 29.2618C6.20924 29.5364 6.65545 29.5364 6.9302 29.2618L10.4547 25.7418C11.0652 25.1318 12.0545 25.1324 12.6644 25.743C13.2742 26.3537 13.2736 27.343 12.663 27.9528L9.13856 31.473C7.64374 32.9659 5.22095 32.9659 3.72614 31.473C2.23028 29.9789 2.23028 27.5557 3.72614 26.0618L4.04656 25.7418C4.65712 25.1318 5.64643 25.1324 6.25626 25.743Z" fill="#1E552C"/>
<path d="M16.3688 27.8187C16.979 28.4289 16.979 29.4181 16.3688 30.0283L11.9586 34.4385C11.3484 35.0487 10.3591 35.0487 9.7489 34.4385C9.13871 33.8283 9.13871 32.8392 9.7489 32.2289L14.1591 27.8187C14.7693 27.2085 15.7586 27.2085 16.3688 27.8187Z" fill="#1E552C"/>
<path d="M22.1517 33.5944C22.762 34.2046 22.762 35.194 22.1517 35.8042L17.7716 40.1842C17.1614 40.7944 16.1721 40.7944 15.5619 40.1842C14.9517 39.574 14.9517 38.5846 15.5619 37.9744L19.942 33.5944C20.5521 32.9842 21.5415 32.9842 22.1517 33.5944Z" fill="#1E552C"/>
<path d="M15.5671 34.4191C16.1705 35.036 16.1595 36.0251 15.5425 36.6285L11.9809 40.1118C11.364 40.7151 10.3747 40.7041 9.77136 40.0872C9.16798 39.4703 9.17898 38.481 9.79594 37.8776L13.3575 34.3945C13.9745 33.791 14.9638 33.802 15.5671 34.4191Z" fill="#1E552C"/>
<path d="M24.1799 37.3462C24.7899 37.9568 24.7893 38.9462 24.1787 39.556L20.6542 43.0762C20.3806 43.3496 20.3806 43.7918 20.6542 44.0652C20.9289 44.3396 21.3752 44.3396 21.6499 44.0652L21.9704 43.7452C22.581 43.1354 23.5702 43.136 24.1799 43.7466C24.7899 44.3571 24.7893 45.3464 24.1787 45.9562L23.8583 46.2762C22.3635 47.7693 19.9407 47.7693 18.4459 46.2762C16.95 44.7823 16.95 42.3591 18.4459 40.865L21.9704 37.345C22.581 36.7352 23.5702 36.7356 24.1799 37.3462Z" fill="#1E552C"/>
<path fill-rule="evenodd" clip-rule="evenodd" d="M37.4834 2.60436L37.762 2.60448H38.8978C40.4678 2.60442 41.8001 2.60436 42.863 2.74665C43.9936 2.89803 45.0505 3.23563 45.9049 4.08651C46.7603 4.9383 47.1005 5.99332 47.253 7.12236C47.3961 8.18198 47.3959 9.50996 47.3959 11.0723V12.2045L47.3961 12.4835C47.3972 14.3605 47.3982 15.735 46.874 16.9948C46.3505 18.2539 45.3747 19.2242 44.0409 20.5507L43.8428 20.7478L39.122 25.4486L39.2038 25.5749C39.914 26.6703 40.4957 27.5676 40.9167 28.3434C41.3551 29.1511 41.6738 29.9218 41.8017 30.7811C42.0053 32.1478 41.8211 33.5513 41.2828 34.8395C41.0774 35.3307 40.7272 35.8357 40.3797 36.2832C40.0134 36.7551 39.5672 37.267 39.0907 37.7857C38.1428 38.817 37.0061 39.949 36.0007 40.9503L35.9861 40.9649L35.8336 41.1165C34.4288 42.5155 31.9917 42.0653 31.2399 40.1818C30.8255 39.1436 30.6636 38.7451 30.4622 38.3782C30.2736 38.0351 30.0576 37.7078 29.8157 37.3997C29.5607 37.0747 29.2624 36.7728 28.4955 36.009L27.6142 35.2374C27.4663 35.2532 27.3165 35.2611 27.1645 35.2611C25.9584 35.2611 24.9717 34.7565 24.0634 34.0665C23.2103 33.4184 22.2678 32.4799 21.1582 31.3747L18.5198 28.7474C17.4101 27.6426 16.4675 26.7038 15.8165 25.8545C15.1236 24.9501 14.6143 23.9643 14.6143 22.7572C14.6143 22.5751 14.626 22.3963 14.6487 22.2207L13.2165 20.7944C13.1283 20.7067 13.0943 20.6728 13.0608 20.6404C12.4022 20.0021 11.6271 19.4943 10.7768 19.1444C10.7337 19.1266 10.689 19.1089 10.5731 19.0631L9.88685 18.7914C7.9146 18.0109 7.38104 15.4654 8.88926 13.9635L8.90381 13.949C9.90931 12.9478 11.0461 11.8159 12.0819 10.8721C12.6027 10.3975 13.1167 9.95336 13.5904 9.58867C14.04 9.24257 14.5463 8.89442 15.0381 8.69059C16.3292 8.15557 17.7351 7.9728 19.1038 8.17482C19.9638 8.30176 20.736 8.61823 21.5465 9.05448C22.3255 9.47367 23.2263 10.0528 24.3267 10.7602L24.4636 10.8482L29.1917 6.13992L29.3888 5.94369C30.722 4.61438 31.6957 3.64355 32.9582 3.12278C34.2201 2.6023 35.5967 2.60317 37.4834 2.60436ZM36.8586 27.7026C37.4447 28.609 37.8655 29.2726 38.1703 29.8343C38.5157 30.4707 38.6572 30.8799 38.7109 31.2413C38.828 32.0274 38.7247 32.8561 38.3995 33.6345C38.3601 33.7288 38.2219 33.9665 37.9113 34.367C37.6194 34.7428 37.2374 35.1838 36.7894 35.6711C35.9457 36.5895 34.9297 37.6063 33.9615 38.5707C33.674 37.8536 33.464 37.3524 33.2013 36.8738C32.9309 36.3818 32.6209 35.9124 32.2742 35.4705C31.8832 34.9722 31.4359 34.527 30.7344 33.8286L30.659 33.7534C30.7292 33.6949 30.7992 33.6355 30.869 33.5755C31.5559 32.983 32.3251 32.217 33.2095 31.3363L36.8586 27.7026ZM37.762 5.72948C35.4765 5.72948 34.7674 5.75694 34.1499 6.01169C33.533 6.26613 33.013 6.74496 31.397 8.3543L20.7995 18.907C19.8943 19.8084 19.2151 20.4859 18.7047 21.0676C18.1915 21.6526 17.9449 22.0363 17.8292 22.3238C17.7633 22.4874 17.7393 22.6222 17.7393 22.7572C17.7393 23.0022 17.8166 23.3265 18.2971 23.9538C18.805 24.6165 19.5948 25.4078 20.7995 26.6074L20.9415 26.7488L23.5728 24.1286C24.1842 23.5199 25.1736 23.522 25.7826 24.1334C26.3915 24.7449 26.3895 25.7343 25.7778 26.343L23.1559 28.954L23.2886 29.0861C24.4934 30.2857 25.288 31.0722 25.9538 31.5782C26.5834 32.0565 26.9124 32.1361 27.1645 32.1361C27.2934 32.1361 27.4192 32.1151 27.5657 32.0611C27.8495 31.9568 28.233 31.7224 28.8278 31.2093C29.4203 30.6982 30.1117 30.0109 31.0405 29.0861L41.6378 18.5334C43.2547 16.9233 43.7342 16.4065 43.9888 15.7946C44.243 15.1833 44.2709 14.4817 44.2709 12.2045V11.1778C44.2709 9.48098 44.2676 8.36621 44.1561 7.54048C44.0507 6.76038 43.8755 6.4758 43.6999 6.30088C43.5232 6.12505 43.2349 5.94932 42.4482 5.84401C41.6174 5.73278 40.4963 5.72948 38.793 5.72948H37.762ZM38.2238 11.7352C36.2395 9.75921 33.0249 9.75921 31.0405 11.7352C29.0524 13.7149 29.0524 16.9273 31.0405 18.907C33.0249 20.883 36.2395 20.883 38.2238 18.907C40.2117 16.9273 40.2117 13.7149 38.2238 11.7352ZM33.2455 13.9496C34.0105 13.1878 35.2536 13.1878 36.0188 13.9496C36.7803 14.7078 36.7803 15.9344 36.0188 16.6926C35.2536 17.4545 34.0105 17.4545 33.2455 16.6926C32.484 15.9344 32.484 14.7078 33.2455 13.9496ZM22.1963 13.106C21.2915 12.5259 20.6278 12.1088 20.0656 11.8063C19.4259 11.462 19.0133 11.3203 18.6475 11.2663C17.8542 11.1492 17.0186 11.2526 16.2345 11.5775C16.1381 11.6175 15.8985 11.7555 15.4967 12.0649C15.119 12.3556 14.676 12.7361 14.1866 13.182C13.2686 14.0185 12.2526 15.0249 11.2879 15.9851L11.7231 16.1573L11.7336 16.1615C11.8358 16.2019 11.901 16.2278 11.9661 16.2545C13.1822 16.755 14.2919 17.4818 15.2356 18.3963C15.2863 18.4454 15.336 18.495 15.4144 18.5729L16.1227 19.2783C16.1988 19.1873 16.2766 19.0968 16.3556 19.0067C16.9434 18.3367 17.6969 17.5865 18.561 16.726L22.1963 13.106Z" fill="#1E552C"/>
</svg>
