<svg width="50" height="50" viewBox="0 0 50 50" fill="none" xmlns="http://www.w3.org/2000/svg">
<path fill-rule="evenodd" clip-rule="evenodd" d="M24.8805 2.60425H25.1197C29.9288 2.60423 33.6976 2.60421 36.6382 2.99956C39.648 3.40423 42.0232 4.24869 43.8874 6.11287C45.7515 7.97706 46.5959 10.3521 47.0007 13.362C47.3959 16.3026 47.3959 20.0714 47.3959 24.8805V25.1197C47.3959 29.9288 47.3959 33.6976 47.0007 36.6382C46.5959 39.648 45.7515 42.0232 43.8874 43.8874C42.0232 45.7515 39.648 46.5959 36.6382 47.0007C33.6976 47.3959 29.9288 47.3959 25.1197 47.3959H24.8805C20.0714 47.3959 16.3026 47.3959 13.362 47.0007C10.3521 46.5959 7.97706 45.7515 6.11287 43.8874C4.24869 42.0232 3.40423 39.648 2.99956 36.6382C2.60421 33.6976 2.60423 29.9288 2.60425 25.1197V24.8805C2.60423 20.0714 2.60421 16.3026 2.99956 13.362C3.40423 10.3521 4.24869 7.97706 6.11287 6.11287C7.97706 4.24869 10.3521 3.40423 13.362 2.99956C16.3026 2.60421 20.0714 2.60423 24.8805 2.60425ZM13.7784 6.09669C11.115 6.45477 9.50935 7.13579 8.32258 8.32258C7.13579 9.50935 6.45477 11.115 6.09669 13.7784C5.73256 16.4867 5.72925 20.0454 5.72925 25.0001C5.72925 29.9547 5.73256 33.5134 6.09669 36.2217C6.45477 38.8851 7.13579 40.4907 8.32258 41.6776C9.50935 42.8645 11.115 43.5455 13.7784 43.9034C16.4867 44.2676 20.0454 44.2709 25.0001 44.2709C29.9547 44.2709 33.5134 44.2676 36.2217 43.9034C38.8851 43.5455 40.4907 42.8645 41.6776 41.6776C42.8645 40.4907 43.5455 38.8851 43.9034 36.2217C44.2676 33.5134 44.2709 29.9547 44.2709 25.0001C44.2709 20.0454 44.2676 16.4867 43.9034 13.7784C43.5455 11.115 42.8645 9.50935 41.6776 8.32258C40.4907 7.13579 38.8851 6.45477 36.2217 6.09669C33.5134 5.73256 29.9547 5.72925 25.0001 5.72925C20.0454 5.72925 16.4867 5.73256 13.7784 6.09669ZM21.9109 13.452C22.5359 14.0471 22.5601 15.0361 21.9649 15.661L16.0125 21.9109C15.7176 22.2207 15.3087 22.3959 14.881 22.3959C14.4534 22.3959 14.0445 22.2207 13.7496 21.9109L11.3686 19.411C10.7735 18.7861 10.7976 17.7971 11.4225 17.202C12.0474 16.6068 13.0364 16.6309 13.6315 17.2558L14.881 18.5678L19.702 13.5058C20.2971 12.8809 21.2861 12.8568 21.9109 13.452ZM25.5209 18.7501C25.5209 17.8871 26.2205 17.1876 27.0834 17.1876H37.5001C38.363 17.1876 39.0626 17.8871 39.0626 18.7501C39.0626 19.613 38.363 20.3126 37.5001 20.3126H27.0834C26.2205 20.3126 25.5209 19.613 25.5209 18.7501ZM21.9109 28.0353C22.5359 28.6305 22.5601 29.6195 21.9649 30.2442L16.0125 36.4942C15.7176 36.804 15.3087 36.9792 14.881 36.9792C14.4534 36.9792 14.0445 36.804 13.7496 36.4942L11.3686 33.9942C10.7735 33.3695 10.7976 32.3805 11.4225 31.7853C12.0474 31.1901 13.0364 31.2142 13.6315 31.8392L14.881 33.1511L19.702 28.0892C20.2971 27.4642 21.2861 27.4401 21.9109 28.0353ZM25.5209 33.3334C25.5209 32.4705 26.2205 31.7709 27.0834 31.7709H37.5001C38.363 31.7709 39.0626 32.4705 39.0626 33.3334C39.0626 34.1963 38.363 34.8959 37.5001 34.8959H27.0834C26.2205 34.8959 25.5209 34.1963 25.5209 33.3334Z" fill="#1E552C"/>
</svg>
