<svg width="71" height="71" viewBox="0 0 71 71" fill="none" xmlns="http://www.w3.org/2000/svg">
<path fill-rule="evenodd" clip-rule="evenodd" d="M35.3302 3.69775H35.6698C42.4988 3.69772 47.8504 3.6977 52.0261 4.2591C56.3 4.83372 59.6728 6.03286 62.3199 8.68C64.967 11.3271 66.166 14.6997 66.7408 18.9737C67.302 23.1494 67.302 28.5011 67.302 35.33V35.6696C67.302 42.4987 67.302 47.8503 66.7408 52.026C66.166 56.2999 64.967 59.6727 62.3199 62.3198C59.6728 64.9669 56.3 66.1659 52.0261 66.7407C47.8504 67.3019 42.4988 67.3019 35.6698 67.3019H35.3302C28.5012 67.3019 23.1495 67.3019 18.9739 66.7407C14.6998 66.1659 11.3273 64.9669 8.68012 62.3198C6.03298 59.6727 4.83385 56.2999 4.25922 52.026C3.69782 47.8503 3.69785 42.4987 3.69788 35.6696V35.33C3.69785 28.5011 3.69782 23.1494 4.25922 18.9737C4.83385 14.6997 6.03298 11.3271 8.68012 8.68C11.3273 6.03286 14.6998 4.83372 18.9739 4.2591C23.1495 3.6977 28.5012 3.69772 35.3302 3.69775ZM19.5651 8.65702C15.7832 9.16549 13.5031 10.1325 11.8179 11.8178C10.1327 13.503 9.16562 15.783 8.65714 19.565C8.14008 23.4108 8.13538 28.4642 8.13538 35.4998C8.13538 42.5353 8.14008 47.5888 8.65714 51.4346C9.16562 55.2165 10.1327 57.4965 11.8179 59.1819C13.5031 60.8672 15.7832 61.8343 19.5651 62.3426C23.4109 62.8597 28.4644 62.8644 35.5 62.8644C42.5355 62.8644 47.5889 62.8597 51.4347 62.3426C55.2167 61.8343 57.4966 60.8672 59.182 59.1819C60.8674 57.4965 61.8345 55.2165 62.3427 51.4346C62.8598 47.5888 62.8645 42.5353 62.8645 35.4998C62.8645 28.4642 62.8598 23.4108 62.3427 19.565C61.8345 15.783 60.8674 13.503 59.182 11.8178C57.4966 10.1325 55.2167 9.16549 51.4347 8.65702C47.5889 8.13996 42.5355 8.13525 35.5 8.13525C28.4644 8.13525 23.4109 8.13996 19.5651 8.65702ZM31.1133 19.1015C32.0008 19.9466 32.0352 21.351 31.19 22.2383L22.7376 31.1132C22.3188 31.5531 21.7381 31.8019 21.1309 31.8019C20.5237 31.8019 19.943 31.5531 19.5242 31.1132L16.1433 27.5633C15.2982 26.676 15.3324 25.2716 16.2198 24.4265C17.1071 23.5814 18.5116 23.6156 19.3566 24.503L21.1309 26.366L27.9766 19.178C28.8217 18.2906 30.2261 18.2564 31.1133 19.1015ZM36.2395 26.6248C36.2395 25.3995 37.2329 24.4061 38.4583 24.4061H53.25C54.4753 24.4061 55.4687 25.3995 55.4687 26.6248C55.4687 27.8502 54.4753 28.8436 53.25 28.8436H38.4583C37.2329 28.8436 36.2395 27.8502 36.2395 26.6248ZM31.1133 39.8098C32.0008 40.655 32.0352 42.0593 31.19 42.9466L22.7376 51.8216C22.3188 52.2615 21.7381 52.5103 21.1309 52.5103C20.5237 52.5103 19.943 52.2615 19.5242 51.8216L16.1433 48.2716C15.2982 47.3843 15.3324 45.98 16.2198 45.1348C17.1071 44.2896 18.5116 44.324 19.3566 45.2115L21.1309 47.0743L27.9766 39.8865C28.8217 38.999 30.2261 38.9646 31.1133 39.8098ZM36.2395 47.3332C36.2395 46.1078 37.2329 45.1144 38.4583 45.1144H53.25C54.4753 45.1144 55.4687 46.1078 55.4687 47.3332C55.4687 48.5585 54.4753 49.5519 53.25 49.5519H38.4583C37.2329 49.5519 36.2395 48.5585 36.2395 47.3332Z" fill="#1E552C"/>
</svg>
