<svg width="100" height="100" viewBox="0 0 100 100" fill="none" xmlns="http://www.w3.org/2000/svg">
<path fill-rule="evenodd" clip-rule="evenodd" d="M50 11.4585C28.714 11.4585 11.4583 28.7142 11.4583 50.0002C11.4583 71.286 28.714 88.5418 50 88.5418C71.2858 88.5418 88.5416 71.286 88.5416 50.0002C88.5416 28.7142 71.2858 11.4585 50 11.4585ZM5.20831 50.0002C5.20831 25.2624 25.2622 5.2085 50 5.2085C74.7379 5.2085 94.7916 25.2624 94.7916 50.0002C94.7916 74.7381 74.7379 94.7918 50 94.7918C25.2622 94.7918 5.20831 74.7381 5.20831 50.0002ZM46.5062 26.0417C46.56 26.0417 46.6133 26.0418 46.6666 26.0418H56.25C63.7287 26.0418 69.7916 32.1046 69.7916 39.5835C69.7916 47.0622 63.7287 53.1252 56.25 53.1252H44.7916V55.2085H50C51.7258 55.2085 53.125 56.6077 53.125 58.3335C53.125 60.0593 51.7258 61.4585 50 61.4585H44.7916V70.8335C44.7916 72.5593 43.3925 73.9585 41.6666 73.9585C39.9408 73.9585 38.5416 72.5593 38.5416 70.8335V61.4585H37.5C35.7741 61.4585 34.375 60.0593 34.375 58.3335C34.375 56.6077 35.7741 55.2085 37.5 55.2085H38.5416V53.1252H37.5C35.7741 53.1252 34.375 51.726 34.375 50.0002C34.375 48.2743 35.7741 46.8752 37.5 46.8752H38.5416V34.1668C38.5416 34.1136 38.5416 34.0601 38.5415 34.0065C38.5408 33.4001 38.54 32.7698 38.6314 32.1928C39.1256 29.0728 41.5726 26.6258 44.6925 26.1316C45.2696 26.0402 45.9 26.041 46.5062 26.0417ZM44.7916 46.8752H56.25C60.2771 46.8752 63.5416 43.6106 63.5416 39.5835C63.5416 35.5564 60.2771 32.2918 56.25 32.2918H46.6666C46.2625 32.2918 46.0221 32.2921 45.8408 32.2971C45.7258 32.3002 45.6758 32.3046 45.6637 32.3057C45.2233 32.3784 44.8783 32.7236 44.8054 33.1639C44.8046 33.1759 44.8 33.2258 44.7971 33.341C44.7921 33.5223 44.7916 33.7628 44.7916 34.1668V46.8752Z" fill="#1E552C"/>
</svg>
