<svg width="27" height="26" viewBox="0 0 27 26" fill="none" xmlns="http://www.w3.org/2000/svg">
<g clip-path="url(#clip0_364_34)">
<path d="M14.625 1.0836C14.625 0.796281 14.7435 0.520731 14.9545 0.317566C15.1655 0.114402 15.4516 0.000265204 15.75 0.000265204C18.7327 0.00341943 21.5923 1.1458 23.7013 3.17676C25.8104 5.20772 26.9967 7.96139 27 10.8336C27 11.1209 26.8815 11.3965 26.6705 11.5996C26.4595 11.8028 26.1734 11.9169 25.875 11.9169C25.5766 11.9169 25.2905 11.8028 25.0795 11.5996C24.8685 11.3965 24.75 11.1209 24.75 10.8336C24.7473 8.53585 23.7982 6.33295 22.111 4.70819C20.4238 3.08343 18.1361 2.16951 15.75 2.16693C15.4516 2.16693 15.1655 2.0528 14.9545 1.84963C14.7435 1.64647 14.625 1.37092 14.625 1.0836ZM15.75 6.50026C16.9435 6.50026 18.0881 6.95681 18.932 7.76947C19.7759 8.58213 20.25 9.68433 20.25 10.8336C20.25 11.1209 20.3685 11.3965 20.5795 11.5996C20.7905 11.8028 21.0766 11.9169 21.375 11.9169C21.6734 11.9169 21.9595 11.8028 22.1705 11.5996C22.3815 11.3965 22.5 11.1209 22.5 10.8336C22.4982 9.11022 21.7865 7.45792 20.521 6.2393C19.2555 5.02069 17.5397 4.33532 15.75 4.3336C15.4516 4.3336 15.1655 4.44773 14.9545 4.6509C14.7435 4.85406 14.625 5.12961 14.625 5.41693C14.625 5.70425 14.7435 5.9798 14.9545 6.18296C15.1655 6.38613 15.4516 6.50026 15.75 6.50026ZM25.9796 18.1342C26.6316 18.7637 26.9977 19.6165 26.9977 20.5056C26.9977 21.3947 26.6316 22.2475 25.9796 22.877L24.9559 24.0134C15.7421 32.5078 -6.67913 10.9224 2.00587 2.02177L3.29962 0.938432C3.95411 0.328166 4.8318 -0.00943163 5.74279 -0.00132205C6.65379 0.00678753 7.52484 0.359952 8.1675 0.981765C8.20237 1.01535 10.287 3.62293 10.287 3.62293C10.9056 4.24869 11.2499 5.07994 11.2484 5.94387C11.247 6.8078 10.8998 7.63795 10.2791 8.26176L8.97637 9.8391C9.69733 11.526 10.7573 13.059 12.0954 14.3502C13.4336 15.6414 15.0235 16.6652 16.7737 17.3628L18.4219 16.1008C19.0698 15.5035 19.9317 15.1696 20.8286 15.1684C21.7255 15.1672 22.5884 15.4988 23.238 16.0943C23.238 16.0943 25.9447 18.1006 25.9796 18.1342ZM24.4316 19.7093C24.4316 19.7093 21.7395 17.7149 21.7046 17.6813C21.4729 17.4601 21.1597 17.3359 20.8333 17.3359C20.5069 17.3359 20.1938 17.4601 19.962 17.6813C19.9316 17.7117 17.6625 19.4526 17.6625 19.4526C17.5096 19.5698 17.3276 19.6466 17.1345 19.6755C16.9414 19.7044 16.7437 19.6843 16.5611 19.6173C14.2936 18.8043 12.2341 17.5316 10.5219 15.8853C8.8098 14.239 7.48508 12.2576 6.6375 10.0753C6.56235 9.89701 6.53785 9.70269 6.56652 9.5123C6.59518 9.3219 6.67599 9.14229 6.80062 8.99193C6.80062 8.99193 8.6085 6.80576 8.63887 6.7776C8.86868 6.55442 8.99761 6.25285 8.99761 5.93856C8.99761 5.62426 8.86868 5.3227 8.63887 5.09951C8.604 5.06701 6.53287 2.47243 6.53287 2.47243C6.29764 2.26931 5.99063 2.16054 5.67478 2.16839C5.35893 2.17625 5.05816 2.30014 4.83412 2.51468L3.54037 3.59802C-2.80688 10.9473 16.623 28.6198 23.3111 22.5336L24.336 21.3961C24.5762 21.1819 24.7204 20.8861 24.7383 20.5714C24.7561 20.2566 24.6461 19.9475 24.4316 19.7093Z" fill="#FEFEFE"/>
</g>
<defs>
<clipPath id="clip0_364_34">
<rect width="27" height="26" fill="white"/>
</clipPath>
</defs>
</svg>
