<svg width="24" height="23" viewBox="0 0 24 23" fill="none" xmlns="http://www.w3.org/2000/svg">
<g clip-path="url(#clip0_364_22)">
<path d="M13 0.958399C13 0.704233 13.1054 0.460477 13.2929 0.280755C13.4804 0.101033 13.7348 6.55836e-05 14 6.55836e-05C16.6513 0.00285586 19.1931 1.01342 21.0679 2.81004C22.9426 4.60666 23.9971 7.0426 24 9.5834C24 9.83756 23.8946 10.0813 23.7071 10.261C23.5196 10.4408 23.2652 10.5417 23 10.5417C22.7348 10.5417 22.4804 10.4408 22.2929 10.261C22.1054 10.0813 22 9.83756 22 9.5834C21.9976 7.55077 21.154 5.60205 19.6542 4.16477C18.1544 2.72748 16.121 1.91902 14 1.91673C13.7348 1.91673 13.4804 1.81577 13.2929 1.63604C13.1054 1.45632 13 1.21256 13 0.958399ZM14 5.75007C15.0609 5.75007 16.0783 6.15393 16.8284 6.87282C17.5786 7.59171 18 8.56674 18 9.5834C18 9.83756 18.1054 10.0813 18.2929 10.261C18.4804 10.4408 18.7348 10.5417 19 10.5417C19.2652 10.5417 19.5196 10.4408 19.7071 10.261C19.8946 10.0813 20 9.83756 20 9.5834C19.9984 8.05887 19.3658 6.59722 18.2409 5.51922C17.116 4.44121 15.5908 3.83492 14 3.8334C13.7348 3.8334 13.4804 3.93437 13.2929 4.11409C13.1054 4.29381 13 4.53757 13 4.79173C13 5.0459 13.1054 5.28965 13.2929 5.46938C13.4804 5.6491 13.7348 5.75007 14 5.75007ZM23.093 16.0416C23.6725 16.5985 23.9979 17.3529 23.9979 18.1394C23.9979 18.9259 23.6725 19.6803 23.093 20.2372L22.183 21.2425C13.993 28.7568 -5.937 9.66198 1.783 1.78832L2.933 0.829982C3.51477 0.290131 4.29493 -0.00851238 5.1047 -0.00133853C5.91448 0.00583533 6.68875 0.31825 7.26 0.868316C7.291 0.898024 9.144 3.20473 9.144 3.20473C9.69383 3.75829 9.99991 4.49362 9.9986 5.25787C9.9973 6.02211 9.68872 6.75648 9.137 7.30832L7.979 8.70365C8.61985 10.1959 9.56206 11.5521 10.7515 12.6942C11.941 13.8364 13.3542 14.7421 14.91 15.3593L16.375 14.2428C16.9509 13.7145 17.7171 13.4191 18.5143 13.4181C19.3115 13.417 20.0786 13.7103 20.656 14.2371C20.656 14.2371 23.062 16.0119 23.093 16.0416ZM21.717 17.435C21.717 17.435 19.324 15.6707 19.293 15.641C19.087 15.4453 18.8086 15.3354 18.5185 15.3354C18.2284 15.3354 17.95 15.4453 17.744 15.641C17.717 15.6679 15.7 17.2079 15.7 17.2079C15.5641 17.3116 15.4023 17.3795 15.2306 17.4051C15.059 17.4306 14.8833 17.4129 14.721 17.3536C12.7055 16.6344 10.8747 15.5085 9.35284 14.0522C7.83093 12.5958 6.6534 10.8431 5.9 8.91257C5.8332 8.75488 5.81142 8.58298 5.8369 8.41456C5.86239 8.24613 5.93421 8.08724 6.045 7.95423C6.045 7.95423 7.652 6.02032 7.679 5.9954C7.88327 5.79797 7.99788 5.5312 7.99788 5.25317C7.99788 4.97514 7.88327 4.70837 7.679 4.51094C7.648 4.48219 5.807 2.18698 5.807 2.18698C5.5979 2.0073 5.325 1.91107 5.04425 1.91802C4.76349 1.92497 4.49614 2.03457 4.297 2.22436L3.147 3.18269C-2.495 9.68402 14.776 25.3173 20.721 19.9334L21.632 18.9271C21.8455 18.7376 21.9737 18.476 21.9896 18.1976C22.0054 17.9191 21.9077 17.6457 21.717 17.435Z" fill="#FEFEFE"/>
</g>
<defs>
<clipPath id="clip0_364_22">
<rect width="24" height="23" fill="white"/>
</clipPath>
</defs>
</svg>
