<svg width="20" height="19" viewBox="0 0 20 19" fill="none" xmlns="http://www.w3.org/2000/svg">
<g clip-path="url(#clip0_364_11)">
<path d="M10.8333 0.79171C10.8333 0.581747 10.9211 0.380384 11.0774 0.231917C11.2337 0.0834511 11.4457 4.3563e-05 11.6667 4.3563e-05C13.8761 0.00234858 15.9943 0.837164 17.5565 2.32133C19.1188 3.80549 19.9976 5.81779 20 7.91671C20 8.12667 19.9122 8.32804 19.7559 8.4765C19.5996 8.62497 19.3877 8.70838 19.1667 8.70838C18.9457 8.70838 18.7337 8.62497 18.5774 8.4765C18.4211 8.32804 18.3333 8.12667 18.3333 7.91671C18.3313 6.23759 17.6283 4.62777 16.3785 3.44045C15.1287 2.25313 13.4342 1.58526 11.6667 1.58338C11.4457 1.58338 11.2337 1.49997 11.0774 1.3515C10.9211 1.20304 10.8333 1.00167 10.8333 0.79171ZM11.6667 4.75004C12.5507 4.75004 13.3986 5.08367 14.0237 5.67754C14.6488 6.2714 15 7.07686 15 7.91671C15 8.12667 15.0878 8.32804 15.2441 8.4765C15.4004 8.62497 15.6123 8.70838 15.8333 8.70838C16.0543 8.70838 16.2663 8.62497 16.4226 8.4765C16.5789 8.32804 16.6667 8.12667 16.6667 7.91671C16.6653 6.65732 16.1381 5.44987 15.2007 4.55934C14.2633 3.66882 12.9923 3.16797 11.6667 3.16671C11.4457 3.16671 11.2337 3.25012 11.0774 3.39858C10.9211 3.54705 10.8333 3.74841 10.8333 3.95838C10.8333 4.16834 10.9211 4.3697 11.0774 4.51817C11.2337 4.66664 11.4457 4.75004 11.6667 4.75004ZM19.2442 13.2518C19.7271 13.7118 19.9983 14.335 19.9983 14.9847C19.9983 15.6344 19.7271 16.2576 19.2442 16.7177L18.4858 17.5481C11.6608 23.7556 -4.9475 7.98163 1.48583 1.47729L2.44417 0.685627C2.92897 0.239663 3.57911 -0.00704258 4.25392 -0.00111635C4.92873 0.00480988 5.57395 0.262891 6.05 0.717294C6.07583 0.741835 7.62 2.64738 7.62 2.64738C8.07819 3.10467 8.33325 3.71211 8.33217 4.34345C8.33108 4.97478 8.07393 5.58143 7.61417 6.03729L6.64917 7.18996C7.18321 8.42267 7.96838 9.54299 8.95959 10.4865C9.95079 11.4301 11.1285 12.1783 12.425 12.6881L13.6458 11.7658C14.1258 11.3294 14.7642 11.0854 15.4286 11.0845C16.0929 11.0836 16.7321 11.3259 17.2133 11.761C17.2133 11.761 19.2183 13.2272 19.2442 13.2518ZM18.0975 14.4028C18.0975 14.4028 16.1033 12.9454 16.0775 12.9208C15.9058 12.7591 15.6738 12.6684 15.4321 12.6684C15.1903 12.6684 14.9583 12.7591 14.7867 12.9208C14.7642 12.943 13.0833 14.2152 13.0833 14.2152C12.9701 14.3009 12.8353 14.357 12.6922 14.3781C12.5491 14.3992 12.4028 14.3845 12.2675 14.3355C10.5879 13.7415 9.06228 12.8114 7.79403 11.6083C6.52578 10.4053 5.5445 8.9573 4.91667 7.36254C4.861 7.23228 4.84285 7.09028 4.86408 6.95115C4.88532 6.81201 4.94518 6.68076 5.0375 6.57088C5.0375 6.57088 6.37667 4.97329 6.39917 4.95271C6.56939 4.78962 6.6649 4.56924 6.6649 4.33956C6.6649 4.10989 6.56939 3.88951 6.39917 3.72642C6.37333 3.70267 4.83917 1.80663 4.83917 1.80663C4.66492 1.6582 4.4375 1.5787 4.20354 1.58444C3.96957 1.59018 3.74678 1.68072 3.58083 1.8375L2.6225 2.62917C-2.07917 7.99984 12.3133 20.9143 17.2675 16.4667L18.0267 15.6355C18.2046 15.4789 18.3114 15.2628 18.3246 15.0328C18.3379 14.8027 18.2564 14.5768 18.0975 14.4028Z" fill="#FEFEFE"/>
</g>
<defs>
<clipPath id="clip0_364_11">
<rect width="20" height="19" fill="white"/>
</clipPath>
</defs>
</svg>
