<svg width="27" height="26" viewBox="0 0 27 26" fill="none" xmlns="http://www.w3.org/2000/svg">
<g clip-path="url(#clip0_364_37)">
<path d="M21.375 1.08325H5.625C4.13371 1.08497 2.704 1.65621 1.6495 2.67166C0.594992 3.68711 0.00178634 5.06386 0 6.49992L0 19.4999C0.00178634 20.936 0.594992 22.3127 1.6495 23.3282C2.704 24.3436 4.13371 24.9149 5.625 24.9166H21.375C22.8663 24.9149 24.296 24.3436 25.3505 23.3282C26.405 22.3127 26.9982 20.936 27 19.4999V6.49992C26.9982 5.06386 26.405 3.68711 25.3505 2.67166C24.296 1.65621 22.8663 1.08497 21.375 1.08325ZM5.625 3.24992H21.375C22.0486 3.25119 22.7065 3.44656 23.2638 3.81087C23.8212 4.17519 24.2526 4.69178 24.5025 5.29417L15.8872 13.5914C15.2532 14.1995 14.3948 14.5409 13.5 14.5409C12.6052 14.5409 11.7468 14.1995 11.1128 13.5914L2.4975 5.29417C2.74742 4.69178 3.17882 4.17519 3.73618 3.81087C4.29354 3.44656 4.95137 3.25119 5.625 3.24992ZM21.375 22.7499H5.625C4.72989 22.7499 3.87145 22.4075 3.23851 21.798C2.60558 21.1885 2.25 20.3619 2.25 19.4999V8.12492L9.522 15.1233C10.578 16.1375 12.0085 16.7071 13.5 16.7071C14.9915 16.7071 16.422 16.1375 17.478 15.1233L24.75 8.12492V19.4999C24.75 20.3619 24.3944 21.1885 23.7615 21.798C23.1286 22.4075 22.2701 22.7499 21.375 22.7499Z" fill="#FEFEFE"/>
</g>
<defs>
<clipPath id="clip0_364_37">
<rect width="27" height="26" fill="white"/>
</clipPath>
</defs>
</svg>
