<svg width="24" height="23" viewBox="0 0 24 23" fill="none" xmlns="http://www.w3.org/2000/svg">
<g clip-path="url(#clip0_364_20)">
<path d="M19 0.958313H5C3.6744 0.959835 2.40356 1.46516 1.46622 2.36344C0.528882 3.26172 0.00158786 4.47962 0 5.74998L0 17.25C0.00158786 18.5203 0.528882 19.7382 1.46622 20.6365C2.40356 21.5348 3.6744 22.0401 5 22.0416H19C20.3256 22.0401 21.5964 21.5348 22.5338 20.6365C23.4711 19.7382 23.9984 18.5203 24 17.25V5.74998C23.9984 4.47962 23.4711 3.26172 22.5338 2.36344C21.5964 1.46516 20.3256 0.959835 19 0.958313ZM5 2.87498H19C19.5988 2.87611 20.1835 3.04893 20.679 3.37121C21.1744 3.69349 21.5579 4.15047 21.78 4.68335L14.122 12.0232C13.5584 12.5612 12.7954 12.8632 12 12.8632C11.2046 12.8632 10.4416 12.5612 9.878 12.0232L2.22 4.68335C2.44215 4.15047 2.82561 3.69349 3.32105 3.37121C3.81648 3.04893 4.40121 2.87611 5 2.87498ZM19 20.125H5C4.20435 20.125 3.44129 19.8221 2.87868 19.2829C2.31607 18.7437 2 18.0125 2 17.25V7.18748L8.464 13.3783C9.40263 14.2756 10.6743 14.7794 12 14.7794C13.3257 14.7794 14.5974 14.2756 15.536 13.3783L22 7.18748V17.25C22 18.0125 21.6839 18.7437 21.1213 19.2829C20.5587 19.8221 19.7956 20.125 19 20.125Z" fill="#FEFEFE"/>
</g>
<defs>
<clipPath id="clip0_364_20">
<rect width="24" height="23" fill="white"/>
</clipPath>
</defs>
</svg>
