<svg width="20" height="19" viewBox="0 0 20 19" fill="none" xmlns="http://www.w3.org/2000/svg">
<g clip-path="url(#clip0_364_2)">
<path d="M15.8333 0.791748H4.16666C3.062 0.793005 2.00296 1.21045 1.22184 1.95251C0.440727 2.69456 0.00131559 3.70065 -7.62939e-06 4.75008L-7.62939e-06 14.2501C0.00131559 15.2995 0.440727 16.3056 1.22184 17.0477C2.00296 17.7897 3.062 18.2072 4.16666 18.2084H15.8333C16.938 18.2072 17.997 17.7897 18.7781 17.0477C19.5593 16.3056 19.9987 15.2995 20 14.2501V4.75008C19.9987 3.70065 19.5593 2.69456 18.7781 1.95251C17.997 1.21045 16.938 0.793005 15.8333 0.791748ZM4.16666 2.37508H15.8333C16.3323 2.37601 16.8196 2.51878 17.2325 2.78501C17.6453 3.05124 17.9649 3.42875 18.15 3.86896L11.7683 9.93233C11.2987 10.3767 10.6628 10.6262 9.99999 10.6262C9.33715 10.6262 8.7013 10.3767 8.23166 9.93233L1.84999 3.86896C2.03512 3.42875 2.35467 3.05124 2.76753 2.78501C3.18039 2.51878 3.66767 2.37601 4.16666 2.37508ZM15.8333 16.6251H4.16666C3.50362 16.6251 2.86773 16.3749 2.39889 15.9295C1.93005 15.4841 1.66666 14.88 1.66666 14.2501V5.93758L7.05333 11.0517C7.83552 11.793 8.89521 12.2092 9.99999 12.2092C11.1048 12.2092 12.1645 11.793 12.9467 11.0517L18.3333 5.93758V14.2501C18.3333 14.88 18.0699 15.4841 17.6011 15.9295C17.1323 16.3749 16.4964 16.6251 15.8333 16.6251Z" fill="#FEFEFE"/>
</g>
<defs>
<clipPath id="clip0_364_2">
<rect width="20" height="19" fill="white"/>
</clipPath>
</defs>
</svg>
